<!-- Generated by specarch-gen-bpmn from ../spec/specarch.yaml, version 0.1.0; meta-model 0.1. Do not edit this file: change the YAML and generate again. -->
<svg xmlns="http://www.w3.org/2000/svg" viewBox="0 0 703 272" width="703" height="272" role="img" aria-labelledby="title-fee-waiver">
  <title id="title-fee-waiver">Workflow fee-waiver</title>
  <style>
    .line { fill: none; stroke: #1f2328; stroke-width: 1.5; }
    .shape { fill: #ffffff; stroke: #1f2328; stroke-width: 2; }
    .end { fill: #ffffff; stroke: #1f2328; stroke-width: 4; }
    .head { fill: #1f2328; }
    text { fill: #1f2328; font-family: system-ui, sans-serif; font-size: 12px; }
    .name { font-weight: 600; }
    .small { font-size: 11px; fill: #57606a; }
    .draft { fill: #9a6700; font-weight: 600; }
    @media (prefers-color-scheme: dark) {
      .line { stroke: #d1d7e0; }
      .shape, .end { fill: #151b23; stroke: #d1d7e0; }
      .head { fill: #d1d7e0; }
      text { fill: #d1d7e0; }
      .small { fill: #9198a1; }
      .draft { fill: #d29922; }
    }
  </style>
  <defs>
    <marker id="head" viewBox="0 0 10 10" refX="10" refY="5" markerWidth="8" markerHeight="8" orient="auto-start-reverse">
      <path class="head" d="M0,0 L10,5 L0,10 z"/>
    </marker>
  </defs>
  <!-- Draft: the specification is not approved: there is no records/approvals/0.1.0.yaml beside the specification; this file is not the approved output. -->
  <text class="draft" x="16" y="20">Draft: not the approved output</text>
  <g transform="translate(0,24)">
    <polyline class="line" points="82,80 142,80" marker-end="url(#head)"/>
    <polyline class="line" points="267,80 327,80" marker-end="url(#head)"/>
    <polyline class="line" points="377,80 437,80" marker-end="url(#head)"/>
    <text class="small" x="383" y="74">approved</text>
    <polyline class="line" points="547,80 607,80" marker-end="url(#head)"/>
    <polyline class="line" points="352,105 352,190 607,190" marker-end="url(#head)"/>
    <text class="small" x="358" y="121">refused</text>
    <polyline class="line" points="237,138 237,190 607,190" marker-end="url(#head)"/>
    <text class="small" x="243" y="154">after P3D</text>
    <circle class="shape" cx="64" cy="80" r="18"/>
    <text x="64" y="114" text-anchor="middle">requestFeeWaiver</text>
    <rect class="shape" x="142" y="40" width="125" height="80" rx="10"/>
    <text class="small" x="150" y="56">approval</text>
    <text class="name" x="204" y="82" text-anchor="middle">approve</text>
    <text class="small" x="204" y="100" text-anchor="middle">desk-supervisor</text>
    <circle class="shape" cx="237" cy="120" r="18"/>
    <circle class="line" cx="237" cy="120" r="14"/>
    <polyline class="line" points="237,111 237,120 244,120"/>
    <polygon class="shape" points="352,55 377,80 352,105 327,80"/>
    <path class="line" d="M344,72 L360,88 M360,72 L344,88"/>
    <rect class="shape" x="437" y="40" width="110" height="80" rx="10"/>
    <text class="small" x="445" y="56">operation</text>
    <text class="name" x="492" y="82" text-anchor="middle">waive</text>
    <text class="small" x="492" y="100" text-anchor="middle">waiveFee</text>
    <circle class="end" cx="625" cy="80" r="18"/>
    <text x="625" y="114" text-anchor="middle">done</text>
    <circle class="end" cx="625" cy="190" r="18"/>
    <text x="625" y="224" text-anchor="middle">refused</text>
  </g>
</svg>
